<svg id="Capa_1" enable-background="new 0 0 512 512" height="512" viewBox="0 0 512 512" width="512" xmlns="http://www.w3.org/2000/svg"><g><path d="m462.571 172.143h-49.429v51.644h-38.856v-86.072h-51.644v-38.858h51.644v-30h-236.572v30h51.644v38.856h-8.428l-68.856 68.857h-43.217v34.43h-38.857v-68.857h-30v236.571h30v-68.856h38.857v34.429h43.216l68.856 68.856h115.712l77.645-77.644v-8.428h38.856v51.643h49.429c27.255 0 49.429-22.173 49.429-49.428v-137.715c0-27.255-22.174-49.428-49.429-49.428zm-243.214-73.286h73.285v38.856h-73.285zm-189.357 211v-38.857h38.857v38.857zm314.286 43.216-60.07 60.069h-90.86l-68.856-68.856h-25.643v-107.715h25.642l68.856-68.857h150.931zm30-26.002v-73.285h38.856v73.285zm107.714 32.215c0 10.713-8.716 19.428-19.429 19.428h-19.429v-176.571h19.429c10.713 0 19.429 8.716 19.429 19.429z"/><path d="m263.188 305.427-20.754 43.791 27.109 12.847 32.256-68.057-11.755-18.581h-41.251l20.749-43.762-27.107-12.853-32.257 68.033 11.756 18.582z"/></g></svg>