<svg width="170" height="51" viewBox="0 0 170 51" fill="none" xmlns="http://www.w3.org/2000/svg">
<g clip-path="url(#clip0)">
<path d="M-0.00146484 26.5587H7.536L10.4448 39.8755L13.3409 26.5587H20.853V48.4448H16.1737V31.754L12.5441 48.4448H8.30745L4.69048 31.754V48.4448H-0.00146484V26.5587Z" fill="#333333"/>
<path d="M24.5333 26.5587H30.2623V34.8294L36.2695 26.5587H43.8828L37.1295 34.8145L44.1864 48.4448H37.1295L33.2216 39.4425L30.2623 43.1002V48.4448H24.5333V26.5587Z" fill="#333333"/>
<path d="M44.7805 26.5587H62.1951V31.963H56.3523V48.4448H50.6233V31.963H44.7805V26.5587Z" fill="#333333"/>
<path d="M74.8052 42.9812C75.5687 42.9812 76.2123 42.7194 76.7359 42.1958C77.2814 41.6722 77.5541 41.0286 77.5541 40.265V26.5533H82.9864V40.265C82.9864 41.3995 82.7682 42.4685 82.3319 43.4721C81.9174 44.4538 81.3392 45.3156 80.5975 46.0573C79.8557 46.7991 78.983 47.3881 77.9795 47.8245C76.9977 48.239 75.9396 48.4462 74.8052 48.4462H69.6674V42.9812H74.8052ZM76.8668 32.0511H69.7001V26.5533H76.8668V32.0511Z" fill="#0D9310"/>
<path d="M99.7415 26.5533C100.483 26.5533 101.181 26.706 101.836 27.0114C102.512 27.295 103.101 27.6877 103.603 28.1895C104.105 28.6695 104.498 29.2476 104.781 29.9239C105.065 30.6003 105.207 31.3093 105.207 32.0511V48.4462H99.7415V42.9812H94.2438H91.004C90.2404 42.9812 89.5314 42.8394 88.8769 42.5558C88.2224 42.2721 87.6442 41.8794 87.1425 41.3777C86.6407 40.8759 86.248 40.2977 85.9644 39.6432C85.6807 38.9887 85.5389 38.2797 85.5389 37.5161V32.0511C85.5389 31.3093 85.6807 30.6003 85.9644 29.9239C86.248 29.2476 86.6407 28.6695 87.1425 28.1895C87.6442 27.6877 88.2224 27.295 88.8769 27.0114C89.5314 26.706 90.2404 26.5533 91.004 26.5533H99.7415ZM99.7415 32.0511H91.004V37.5161H99.7415V32.0511ZM85.5389 40.3305C86.0625 41.3558 86.8152 42.174 87.797 42.7848C88.7787 43.3739 89.8477 43.6684 91.004 43.6684V48.4462H85.5389V40.3305Z" fill="#0D9310"/>
<path d="M121.176 26.586C121.918 26.586 122.616 26.7278 123.271 27.0114C123.947 27.295 124.536 27.6877 125.038 28.1895C125.539 28.6913 125.932 29.2804 126.216 29.9567C126.499 30.6112 126.641 31.3093 126.641 32.0511V37.5161C126.641 38.2797 126.499 38.9887 126.216 39.6432C125.932 40.2977 125.539 40.8759 125.038 41.3777C124.536 41.8794 123.947 42.2721 123.271 42.5557C122.616 42.8394 121.918 42.9812 121.176 42.9812H107.726V26.586H121.176ZM121.176 32.0511H113.191V37.5161H121.176V32.0511ZM107.726 43.6684H113.191V48.4462H107.726V43.6684Z" fill="#0D9310"/>
<path d="M143.037 26.5533C143.778 26.5533 144.477 26.706 145.131 27.0114C145.807 27.295 146.396 27.6877 146.898 28.1895C147.4 28.6695 147.793 29.2476 148.076 29.9239C148.36 30.6003 148.502 31.3093 148.502 32.0511V48.4462H143.037V42.9812H137.539H134.299C133.536 42.9812 132.827 42.8394 132.172 42.5558C131.518 42.2721 130.939 41.8794 130.438 41.3777C129.936 40.8759 129.543 40.2977 129.26 39.6432C128.976 38.9887 128.834 38.2797 128.834 37.5161V32.0511C128.834 31.3093 128.976 30.6003 129.26 29.9239C129.543 29.2476 129.936 28.6695 130.438 28.1895C130.939 27.6877 131.518 27.295 132.172 27.0114C132.827 26.706 133.536 26.5533 134.299 26.5533H143.037ZM143.037 32.0511H134.299V37.5161H143.037V32.0511ZM128.834 40.3305C129.358 41.3558 130.11 42.174 131.092 42.7848C132.074 43.3739 133.143 43.6684 134.299 43.6684V48.4462H128.834V40.3305Z" fill="#0D9310"/>
<path d="M169.969 42.9812V48.4462H163.129C162.366 48.4462 161.657 48.3044 161.002 48.0208C160.348 47.7372 159.77 47.3445 159.268 46.8427C158.766 46.3409 158.373 45.7628 158.09 45.1083C157.806 44.4538 157.664 43.7448 157.664 42.9812V40.265V32.0511H156.29V48.4462H150.825V26.586H157.664C158.406 26.586 159.104 26.7278 159.759 27.0114C160.435 27.295 161.024 27.6877 161.526 28.1895C162.028 28.6913 162.42 29.2804 162.704 29.9567C162.988 30.6112 163.129 31.3093 163.129 32.0511V34.7672V42.9812H169.969ZM164.504 26.586H169.969V42.294H164.504V26.586Z" fill="#0D9310"/>
<path fill-rule="evenodd" clip-rule="evenodd" d="M91.8753 16.0426C87.5133 16.0426 83.762 18.398 81.7555 21.8876C83.9365 19.0087 87.3389 17.1767 91.1774 17.1767C95.0159 17.1767 98.5055 19.0087 100.599 21.8876H102.082C99.9886 18.398 96.2373 16.0426 91.8753 16.0426V16.0426ZM121.973 21.8876L142.91 20.3173C145.091 17.7001 148.319 16.0426 151.983 16.0426C156.345 16.0426 160.097 18.398 162.103 21.8876C159.922 19.0087 156.52 17.1767 152.681 17.1767C148.843 17.1767 145.353 19.0087 143.259 21.8876H121.973ZM168.123 15.5191C169.169 17.0022 169.867 18.8342 169.867 20.8407C169.867 21.4514 169.78 22.0621 169.693 22.6728C168.471 18.6598 165.593 15.4319 161.667 13.8616C141.776 5.2249 121.188 -2.5394 100.686 12.9892C89.6071 12.2913 79.749 14.9085 70.4144 21.1025C78.0915 14.4723 89.7816 11.0699 100.163 11.5934C119.792 -2.27769 134.972 0.862931 161.929 11.5061H169.082C169.431 11.5061 169.693 11.6806 169.867 11.9423C170.042 12.204 170.042 12.553 169.867 12.8147L168.123 15.5191ZM106.357 12.9892H135.321C138.985 12.9892 142.3 11.3317 144.568 8.80171C142.387 10.721 139.508 11.9423 136.367 11.9423L132.354 12.1168L133.576 6.62073L131.308 12.1168L106.357 12.9892Z" fill="#333333"/>
</g>
<defs>
<clipPath id="clip0">
<rect width="170" height="51" fill="white"/>
</clipPath>
</defs>
</svg>
