<svg width="171" height="52" viewBox="0 0 171 52" fill="none" xmlns="http://www.w3.org/2000/svg">
<g clip-path="url(#clip0)">
<path d="M-0.00146484 27.0794H7.58034L10.5062 40.6573L13.4193 27.0794H20.9757V49.3947H16.2689V32.3766L12.6179 49.3947H8.35633L4.71808 32.3766V49.3947H-0.00146484V27.0794Z" fill="white"/>
<path d="M24.6777 27.0794H30.4404V35.5123L36.4829 27.0794H44.1411L37.348 35.4971L44.4464 49.3947H37.348L33.4172 40.2159L30.4404 43.9452V49.3947H24.6777V27.0794Z" fill="white"/>
<path d="M45.0439 27.0794H62.561V32.5897H56.6838V49.3947H50.9211V32.5897H45.0439V27.0794Z" fill="white"/>
<path d="M75.2452 43.824C76.0133 43.824 76.6606 43.5571 77.1873 43.0232C77.7359 42.4893 78.0102 41.8331 78.0102 41.0546V27.074H83.4745V41.0546C83.4745 42.2113 83.2551 43.3012 82.8162 44.3245C82.3992 45.3255 81.8177 46.2041 81.0716 46.9604C80.3254 47.7168 79.4476 48.3174 78.4382 48.7622C77.4506 49.1849 76.3863 49.3962 75.2452 49.3962H70.0771V43.824H75.2452ZM77.319 32.6796H70.1101V27.074H77.319V32.6796Z" fill="white"/>
<path d="M100.328 27.074C101.074 27.074 101.777 27.2297 102.435 27.5411C103.115 27.8303 103.708 28.2307 104.213 28.7423C104.717 29.2317 105.112 29.8212 105.398 30.5107C105.683 31.2003 105.825 31.9232 105.825 32.6796V49.3962H100.328V43.824H94.7981H91.5393C90.7712 43.824 90.058 43.6794 89.3997 43.3902C88.7413 43.101 88.1598 42.7006 87.6551 42.189C87.1503 41.6774 86.7553 41.0879 86.47 40.4206C86.1848 39.7533 86.0421 39.0303 86.0421 38.2518V32.6796C86.0421 31.9232 86.1848 31.2003 86.47 30.5107C86.7553 29.8212 87.1503 29.2317 87.6551 28.7423C88.1598 28.2307 88.7413 27.8303 89.3997 27.5411C90.058 27.2297 90.7712 27.074 91.5393 27.074H100.328ZM100.328 32.6796H91.5393V38.2518H100.328V32.6796ZM86.0421 41.1213C86.5688 42.1668 87.3259 43.0009 88.3134 43.6238C89.3009 44.2244 90.3762 44.5247 91.5393 44.5247V49.3962H86.0421V41.1213Z" fill="white"/>
<path d="M121.889 27.1067C122.635 27.1067 123.337 27.2513 123.996 27.5405C124.676 27.8296 125.268 28.23 125.773 28.7417C126.278 29.2533 126.673 29.8539 126.958 30.5434C127.243 31.2108 127.386 31.9226 127.386 32.6789V38.2511C127.386 39.0297 127.243 39.7526 126.958 40.42C126.673 41.0873 126.278 41.6768 125.773 42.1884C125.268 42.7 124.676 43.1004 123.996 43.3896C123.337 43.6788 122.635 43.8233 121.889 43.8233H108.36V27.1067H121.889ZM121.889 32.6789H113.857V38.2511H121.889V32.6789ZM108.36 44.524H113.857V49.3956H108.36V44.524Z" fill="white"/>
<path d="M143.878 27.074C144.624 27.074 145.326 27.2297 145.985 27.5411C146.665 27.8303 147.258 28.2307 147.762 28.7423C148.267 29.2317 148.662 29.8212 148.947 30.5107C149.233 31.2003 149.375 31.9232 149.375 32.6796V49.3962H143.878V43.824H138.348H135.089C134.321 43.824 133.608 43.6794 132.949 43.3902C132.291 43.101 131.71 42.7006 131.205 42.189C130.7 41.6774 130.305 41.0879 130.02 40.4206C129.735 39.7533 129.592 39.0303 129.592 38.2518V32.6796C129.592 31.9232 129.735 31.2003 130.02 30.5107C130.305 29.8212 130.7 29.2317 131.205 28.7423C131.71 28.2307 132.291 27.8303 132.949 27.5411C133.608 27.2297 134.321 27.074 135.089 27.074H143.878ZM143.878 32.6796H135.089V38.2518H143.878V32.6796ZM129.592 41.1213C130.119 42.1668 130.876 43.0009 131.863 43.6238C132.851 44.2244 133.926 44.5247 135.089 44.5247V49.3962H129.592V41.1213Z" fill="white"/>
<path d="M170.969 43.8233V49.3956H164.089C163.321 49.3956 162.608 49.251 161.949 48.9618C161.291 48.6726 160.709 48.2722 160.205 47.7606C159.7 47.249 159.305 46.6595 159.02 45.9922C158.734 45.3248 158.592 44.6019 158.592 43.8233V41.0539V32.6789H157.209V49.3956H151.712V27.1067H158.592C159.338 27.1067 160.04 27.2513 160.698 27.5405C161.379 27.8296 161.971 28.23 162.476 28.7417C162.981 29.2533 163.376 29.8539 163.661 30.5434C163.946 31.2108 164.089 31.9226 164.089 32.6789V35.4483V43.8233H170.969ZM165.472 27.1067H170.969V43.1226H165.472V27.1067Z" fill="white"/>
<path fill-rule="evenodd" clip-rule="evenodd" d="M92.4157 16.3572C88.0281 16.3572 84.2548 18.7588 82.2364 22.3168C84.4303 19.3815 87.8526 17.5135 91.7137 17.5135C95.5748 17.5135 99.0849 19.3815 101.191 22.3168H102.683C100.577 18.7588 96.8034 16.3572 92.4157 16.3572V16.3572ZM122.69 22.3168L143.751 20.7157C145.945 18.0472 149.192 16.3572 152.877 16.3572C157.265 16.3572 161.038 18.7588 163.057 22.3168C160.863 19.3815 157.44 17.5135 153.579 17.5135C149.718 17.5135 146.208 19.3815 144.102 22.3168H122.69ZM169.111 15.8235C170.165 17.3356 170.867 19.2036 170.867 21.2494C170.867 21.8721 170.779 22.4947 170.691 23.1174C169.462 19.0257 166.567 15.7345 162.618 14.1334C142.61 5.32736 121.901 -2.58919 101.279 13.2439C90.1342 12.5323 80.2181 15.2008 70.8286 21.5163C78.5508 14.7561 90.3097 11.287 100.752 11.8207C120.497 -2.32233 135.766 0.879863 162.881 11.7318H170.077C170.428 11.7318 170.691 11.9097 170.867 12.1765C171.042 12.4433 171.042 12.7992 170.867 13.066L169.111 15.8235ZM106.983 13.2439H136.117C139.802 13.2439 143.137 11.5539 145.418 8.97431C143.224 10.9312 140.329 12.1765 137.17 12.1765L133.133 12.3544L134.361 6.75056L132.08 12.3544L106.983 13.2439Z" fill="white"/>
</g>
<defs>
<clipPath id="clip0">
<rect width="171" height="52" fill="white"/>
</clipPath>
</defs>
</svg>
