<svg width="20" height="20" viewBox="0 0 20 20" fill="none" xmlns="http://www.w3.org/2000/svg">
<path d="M9.99997 19.7063C15.3606 19.7063 19.7063 15.3606 19.7063 9.99997C19.7063 4.63931 15.3606 0.29364 9.99997 0.29364C4.63931 0.29364 0.29364 4.63931 0.29364 9.99997C0.29364 15.3606 4.63931 19.7063 9.99997 19.7063Z" fill="#CBE2FF"/>
<path d="M15.624 2.0882C16.7538 3.67488 17.4184 5.61589 17.4184 7.71218C17.4184 13.0728 13.0728 17.4185 7.71212 17.4185C5.61583 17.4185 3.67481 16.7539 2.08813 15.624C3.84767 18.0948 6.7356 19.7063 9.99997 19.7063C15.3606 19.7063 19.7063 15.3607 19.7063 9.99999C19.7063 6.73562 18.0948 3.84769 15.624 2.0882V2.0882Z" fill="#BED8FB"/>
<path d="M14.484 14.8694H5.51599C4.19385 14.8694 3.12201 13.7975 3.12201 12.4754V7.46046C3.12201 6.1383 4.19385 5.06647 5.51599 5.06647H14.484C15.8061 5.06647 16.878 6.1383 16.878 7.46046V12.4754C16.8779 13.7976 15.8061 14.8694 14.484 14.8694Z" fill="#F4FBFF"/>
<path d="M15.5878 5.33862C15.7613 5.67058 15.8599 6.04784 15.8599 6.44835V12.339C15.8599 13.1742 15.1828 13.8513 14.3476 13.8513H4.50389C4.10338 13.8513 3.72612 13.7527 3.39417 13.5792C3.79483 14.3458 4.59702 14.8694 5.52194 14.8694H14.4781C15.8035 14.8694 16.878 13.7949 16.878 12.4694V7.4664C16.878 6.54148 16.3544 5.73929 15.5878 5.33862V5.33862Z" fill="#E4F6FF"/>
<path d="M18.8863 5.40929C18.1813 4.04741 17.1539 2.84648 15.9152 1.93629C15.7845 1.84031 15.6007 1.86832 15.5047 1.99906C15.4086 2.12976 15.4367 2.31355 15.5675 2.4096C17.8961 4.12058 19.3169 6.83088 19.4078 9.70627H17.1717V7.46631C17.1717 6.16846 16.249 5.08218 15.0252 4.8287C14.5296 3.42343 13.8352 2.24085 13.0108 1.403C12.8347 1.22402 12.6532 1.06176 12.4674 0.916053C13.1542 1.10191 13.819 1.36484 14.4454 1.70113C14.5883 1.77781 14.7664 1.72418 14.8431 1.58129C14.9198 1.43836 14.8661 1.26031 14.7233 1.18359C13.2808 0.409257 11.6476 0 9.99998 0C7.32889 0 4.81765 1.04015 2.9289 2.9289C1.04015 4.81765 0 7.32889 0 9.99998C0 11.0139 0.151289 12.0144 0.449608 12.9736C0.488749 13.0995 0.604764 13.1801 0.729999 13.1801C0.758866 13.1801 0.78828 13.1758 0.817303 13.1668C0.972186 13.1186 1.05867 12.954 1.01051 12.7991C0.758592 11.9892 0.618475 11.1476 0.592304 10.2937H2.82835V12.4694C2.82835 13.7586 3.7389 14.8385 4.9505 15.1014C5.44382 16.5264 6.14007 17.7265 6.97026 18.5775C7.15104 18.7628 7.33741 18.9304 7.52838 19.0805C4.86675 18.3529 2.60117 16.4741 1.42687 13.8913C1.35976 13.7438 1.18578 13.6783 1.03797 13.7456C0.890311 13.8127 0.825037 13.9868 0.892186 14.1345C1.67625 15.859 2.92988 17.3217 4.51753 18.3644C6.14675 19.4344 8.04256 20 10 20C12.6711 20 15.1824 18.9598 17.0711 17.071C18.9598 15.1823 20 12.6711 20 9.99998C20 8.40432 19.6148 6.81686 18.8863 5.40929V5.40929ZM14.3795 4.77276H10.2937V0.602577C11.0983 0.6841 11.8872 1.0989 12.592 1.81504C13.3077 2.54222 13.9209 3.55949 14.3795 4.77276ZM9.70631 4.77276H5.62057C6.07921 3.55933 6.69249 2.54199 7.40823 1.81476C8.11291 1.09879 8.90186 0.684061 9.70631 0.602577V4.77276ZM0.592421 9.70627C0.722069 5.49893 3.62601 1.97851 7.53241 0.916209C7.34682 1.06176 7.16553 1.2239 6.98956 1.40269C6.16491 2.24054 5.4705 3.42324 4.97487 4.82866C3.75105 5.08214 2.82831 6.16842 2.82831 7.46627V9.70623H0.592421V9.70627ZM3.41574 12.4694V7.46631C3.41574 6.30495 4.36058 5.36015 5.5219 5.36015H14.478C15.6394 5.36015 16.5842 6.30499 16.5842 7.46631V12.4694C16.5842 13.6308 15.6394 14.5756 14.478 14.5756H5.52194C4.36058 14.5756 3.41574 13.6308 3.41574 12.4694ZM5.59569 15.163H9.70631V19.3973C8.05412 19.2288 6.51839 17.6486 5.59569 15.163ZM12.4676 19.0838C13.2752 18.45 13.9951 17.503 14.5685 16.2884C14.6378 16.1418 14.575 15.9667 14.4283 15.8975C14.2817 15.8282 14.1066 15.891 14.0374 16.0377C13.0888 18.0468 11.7375 19.2532 10.2937 19.3979V15.163H14.4781C15.9633 15.163 17.1717 13.9547 17.1717 12.4694V10.2937H19.4076C19.2779 14.501 16.374 18.0214 12.4676 19.0838V19.0838Z" fill="black"/>
<path d="M9.91965 8.29658H13.8588C13.5486 8.90342 13.1019 9.56014 12.5742 10.1803C12.525 10.2381 12.4752 10.2951 12.4252 10.3516C12.1916 10.0725 11.9943 9.79178 11.8492 9.5292C11.7709 9.38729 11.5921 9.33561 11.4501 9.41416C11.3082 9.4926 11.2566 9.67127 11.3351 9.81326C11.5074 10.1252 11.7435 10.4576 12.022 10.7841C11.5544 11.2599 11.0704 11.6664 10.6164 11.9604C10.4802 12.0486 10.4413 12.2304 10.5295 12.3665C10.6182 12.5038 10.8014 12.5409 10.9356 12.4534C11.4176 12.1413 11.9283 11.7145 12.4199 11.217C12.4495 11.2469 12.4795 11.2767 12.5097 11.3063C13.0012 11.7877 13.54 12.1938 14.0268 12.4497C14.1675 12.5245 14.3476 12.4714 14.4234 12.3264C14.4989 12.1829 14.4437 12.0053 14.3001 11.9298C13.8625 11.6997 13.3726 11.3293 12.9207 10.8867C12.8875 10.8542 12.8548 10.8215 12.8225 10.7886C12.8895 10.7137 12.956 10.6381 13.0216 10.561C13.655 9.81666 14.1806 9.01693 14.5116 8.29662H15.1363C15.2985 8.29662 15.43 8.16514 15.43 8.00291C15.43 7.84069 15.2985 7.7092 15.1363 7.7092H12.7711V6.58979C12.7711 6.42757 12.6396 6.29608 12.4773 6.29608C12.3151 6.29608 12.1836 6.42757 12.1836 6.58979V7.7092H9.91969C9.75746 7.7092 9.62598 7.84069 9.62598 8.00291C9.62594 8.1651 9.75742 8.29658 9.91965 8.29658V8.29658Z" fill="black"/>
<path d="M8.20333 11.631L8.57302 12.6106C8.63029 12.7624 8.79978 12.839 8.9515 12.7817C9.10325 12.7244 9.17986 12.555 9.12255 12.4032L7.35025 7.70695C7.34927 7.70425 7.34821 7.70163 7.34712 7.69898C7.28493 7.54773 7.13915 7.45007 6.97568 7.45007C6.97556 7.45007 6.97544 7.45007 6.97532 7.45007C6.81169 7.45019 6.66587 7.54816 6.60388 7.6996C6.60298 7.70183 6.60208 7.7041 6.60122 7.70632L4.81271 12.4024C4.75497 12.5539 4.83107 12.7236 4.98267 12.7813C5.13029 12.8388 5.30404 12.7645 5.36165 12.6114L5.73505 11.631H8.20333ZM6.97482 8.37573L7.98165 11.0436H5.95876L6.97482 8.37573Z" fill="black"/>
</svg>
